<mxfile host="Electron" agent="Mozilla/5.0 (Windows NT 10.0; Win64; x64) AppleWebKit/537.36 (KHTML, like Gecko) draw.io/25.0.2 Chrome/128.0.6613.186 Electron/32.2.5 Safari/537.36" version="25.0.2">
  <diagram name="Страница — 1" id="wLSk2J7NHVs4QA1nUjGO">
    <mxGraphModel dx="1050" dy="621" grid="1" gridSize="10" guides="1" tooltips="1" connect="1" arrows="1" fold="1" page="1" pageScale="1" pageWidth="827" pageHeight="1169" math="0" shadow="0">
      <root>
        <mxCell id="0" />
        <mxCell id="1" parent="0" />
        <mxCell id="J2MpZRXdgfdqhmIiV9mJ-30" value="Student&lt;div&gt;&lt;br&gt;&lt;/div&gt;" style="shape=umlActor;verticalLabelPosition=bottom;verticalAlign=top;html=1;outlineConnect=0;" vertex="1" parent="1">
          <mxGeometry x="90" y="570" width="30" height="60" as="geometry" />
        </mxCell>
        <mxCell id="J2MpZRXdgfdqhmIiV9mJ-31" value="Teacher&lt;div&gt;&lt;br&gt;&lt;/div&gt;" style="shape=umlActor;verticalLabelPosition=bottom;verticalAlign=top;html=1;outlineConnect=0;" vertex="1" parent="1">
          <mxGeometry x="90" y="270" width="30" height="60" as="geometry" />
        </mxCell>
        <mxCell id="J2MpZRXdgfdqhmIiV9mJ-51" value="" style="edgeStyle=orthogonalEdgeStyle;rounded=0;orthogonalLoop=1;jettySize=auto;html=1;entryX=0;entryY=0.5;entryDx=0;entryDy=0;" edge="1" parent="1" source="J2MpZRXdgfdqhmIiV9mJ-33" target="J2MpZRXdgfdqhmIiV9mJ-46">
          <mxGeometry relative="1" as="geometry" />
        </mxCell>
        <mxCell id="J2MpZRXdgfdqhmIiV9mJ-59" style="edgeStyle=orthogonalEdgeStyle;rounded=0;orthogonalLoop=1;jettySize=auto;html=1;entryX=0;entryY=0.5;entryDx=0;entryDy=0;" edge="1" parent="1" source="J2MpZRXdgfdqhmIiV9mJ-33" target="J2MpZRXdgfdqhmIiV9mJ-56">
          <mxGeometry relative="1" as="geometry" />
        </mxCell>
        <mxCell id="J2MpZRXdgfdqhmIiV9mJ-69" style="edgeStyle=orthogonalEdgeStyle;rounded=0;orthogonalLoop=1;jettySize=auto;html=1;entryX=0;entryY=0.5;entryDx=0;entryDy=0;" edge="1" parent="1" source="J2MpZRXdgfdqhmIiV9mJ-33" target="J2MpZRXdgfdqhmIiV9mJ-66">
          <mxGeometry relative="1" as="geometry" />
        </mxCell>
        <mxCell id="J2MpZRXdgfdqhmIiV9mJ-33" value="Sign in" style="ellipse;whiteSpace=wrap;html=1;verticalAlign=top;" vertex="1" parent="1">
          <mxGeometry x="160" y="460" width="80" height="50" as="geometry" />
        </mxCell>
        <mxCell id="J2MpZRXdgfdqhmIiV9mJ-75" value="" style="edgeStyle=orthogonalEdgeStyle;rounded=0;orthogonalLoop=1;jettySize=auto;html=1;" edge="1" parent="1" source="J2MpZRXdgfdqhmIiV9mJ-40" target="J2MpZRXdgfdqhmIiV9mJ-33">
          <mxGeometry relative="1" as="geometry" />
        </mxCell>
        <mxCell id="J2MpZRXdgfdqhmIiV9mJ-40" value="registration" style="ellipse;whiteSpace=wrap;html=1;verticalAlign=top;" vertex="1" parent="1">
          <mxGeometry x="160" y="560" width="80" height="50" as="geometry" />
        </mxCell>
        <mxCell id="J2MpZRXdgfdqhmIiV9mJ-46" value="getCourses" style="ellipse;whiteSpace=wrap;html=1;verticalAlign=top;" vertex="1" parent="1">
          <mxGeometry x="320" y="577.5" width="95" height="32.5" as="geometry" />
        </mxCell>
        <mxCell id="J2MpZRXdgfdqhmIiV9mJ-48" value="" style="endArrow=none;html=1;rounded=0;exitX=1;exitY=0.3333333333333333;exitDx=0;exitDy=0;exitPerimeter=0;entryX=0;entryY=0.5;entryDx=0;entryDy=0;" edge="1" parent="1" source="J2MpZRXdgfdqhmIiV9mJ-30" target="J2MpZRXdgfdqhmIiV9mJ-40">
          <mxGeometry width="50" height="50" relative="1" as="geometry">
            <mxPoint x="350" y="480" as="sourcePoint" />
            <mxPoint x="400" y="430" as="targetPoint" />
          </mxGeometry>
        </mxCell>
        <mxCell id="J2MpZRXdgfdqhmIiV9mJ-49" value="" style="endArrow=none;html=1;rounded=0;entryX=0;entryY=0.5;entryDx=0;entryDy=0;" edge="1" parent="1" target="J2MpZRXdgfdqhmIiV9mJ-33">
          <mxGeometry width="50" height="50" relative="1" as="geometry">
            <mxPoint x="120" y="590" as="sourcePoint" />
            <mxPoint x="170" y="540" as="targetPoint" />
          </mxGeometry>
        </mxCell>
        <mxCell id="J2MpZRXdgfdqhmIiV9mJ-50" value="" style="endArrow=none;html=1;rounded=0;exitX=1;exitY=0.3333333333333333;exitDx=0;exitDy=0;exitPerimeter=0;entryX=0;entryY=0.5;entryDx=0;entryDy=0;" edge="1" parent="1" source="J2MpZRXdgfdqhmIiV9mJ-31" target="J2MpZRXdgfdqhmIiV9mJ-53">
          <mxGeometry width="50" height="50" relative="1" as="geometry">
            <mxPoint x="350" y="430" as="sourcePoint" />
            <mxPoint x="400" y="380" as="targetPoint" />
          </mxGeometry>
        </mxCell>
        <mxCell id="J2MpZRXdgfdqhmIiV9mJ-77" value="" style="edgeStyle=orthogonalEdgeStyle;rounded=0;orthogonalLoop=1;jettySize=auto;html=1;" edge="1" parent="1" source="J2MpZRXdgfdqhmIiV9mJ-53" target="J2MpZRXdgfdqhmIiV9mJ-76">
          <mxGeometry relative="1" as="geometry" />
        </mxCell>
        <mxCell id="J2MpZRXdgfdqhmIiV9mJ-82" value="" style="edgeStyle=orthogonalEdgeStyle;rounded=0;orthogonalLoop=1;jettySize=auto;html=1;" edge="1" parent="1" source="J2MpZRXdgfdqhmIiV9mJ-53" target="J2MpZRXdgfdqhmIiV9mJ-60">
          <mxGeometry relative="1" as="geometry" />
        </mxCell>
        <mxCell id="J2MpZRXdgfdqhmIiV9mJ-53" value="Sign in&lt;div&gt;(Teacher)&lt;/div&gt;" style="ellipse;whiteSpace=wrap;html=1;verticalAlign=top;" vertex="1" parent="1">
          <mxGeometry x="160" y="260" width="80" height="50" as="geometry" />
        </mxCell>
        <mxCell id="J2MpZRXdgfdqhmIiV9mJ-56" value="cancelCourse" style="ellipse;whiteSpace=wrap;html=1;verticalAlign=top;" vertex="1" parent="1">
          <mxGeometry x="320" y="527.5" width="100" height="35" as="geometry" />
        </mxCell>
        <mxCell id="J2MpZRXdgfdqhmIiV9mJ-83" value="" style="edgeStyle=orthogonalEdgeStyle;rounded=0;orthogonalLoop=1;jettySize=auto;html=1;" edge="1" parent="1" source="J2MpZRXdgfdqhmIiV9mJ-60" target="J2MpZRXdgfdqhmIiV9mJ-76">
          <mxGeometry relative="1" as="geometry" />
        </mxCell>
        <mxCell id="J2MpZRXdgfdqhmIiV9mJ-60" value="newCourse" style="ellipse;whiteSpace=wrap;html=1;verticalAlign=top;" vertex="1" parent="1">
          <mxGeometry x="160" y="340" width="80" height="35" as="geometry" />
        </mxCell>
        <mxCell id="J2MpZRXdgfdqhmIiV9mJ-62" value="" style="shape=image;verticalLabelPosition=bottom;labelBackgroundColor=default;verticalAlign=top;aspect=fixed;imageAspect=0;image=data:image/png,iVBORw0KGgoAAAANSUhEUgAAAqEAAABcCAYAAABeMWywAAAAAXNSR0IArs4c6QAAAARnQU1BAACxjwv8YQUAAAAJcEhZcwAAEnQAABJ0Ad5mH3gAAEHVSURBVHhe7b3fayTHuf//nu+97W3NXjnGmOnJhXGMQjKyTZAMMmR7sjYmIQ4za/tiwWHlnhiDTzaSdyQTTLRaz0QkYI41UvCBvfDZGccbMOZIXu3CGtSD4azlRUPOknOhbhazx1czmnXyB9Tnwv3U9+ma6vmlkbxr1wsajaqq68dTVU89XV1VnRBCCABIJBIIfxoMBsN3inK5jLm5uYib4zi4dOlSxM1gMBgMoyMBwFieBoPBYDAYDIZDJWFmQg0Gg8FgMBgMh83/pzoYDAaDwWAwGAwHjTFCDQaDwWAwGAyHjjFCDQaDwWAwGAyHjjFCDQaDwWAwGAyHjjFCDQaDwWAwGAyHzkiM0HQ6jUQiob2CIFCDGwxotVpYW1vDxMSEbCsTExMol8totVool8vqLQbDd54gCDp0LF3pdFqGq9VqET+DwWC4ExmJEbq7uwvf9yNunudBCIFUKhVxNxgajQa+//3v449//CN++9vfotlsQgiB999/Hw8++CC+//3vdxwcbjAYgFQqBSEEqtVqxF0Igd3dXQBAvV7HwsJC5Mg981BnMBjuRPZlhJbLZfmkbdt2xG9qakr6FQqFiJ/hu0uj0cD09DTGxsbw3//938jn80gmk0A4wObzeXzyySewLEu91WAwhDzwwAOqk+TChQtYXFwEwq8+AcCDDz6ohDIYDIZvnqEPq+eveOg+7uZ5HiYnJ5FOp+Usqe/7Zmb0O042m8Xm5iaq1Sry+bzqLanVal39DYbvMvV6HVNTU/J/rrvT6TQuX75sdK3BYLjjGWomNJvNyt/qayGVy5cvy9/qbClCw5VftVpN+unWP/FZVXLLZrOo1+sdYSmffMaW318oFDru4VetVutYW0XuKrq86i5ONpuN+PG86cqjXul0WptuoVDoWKdL68W6lZnX60HQaDSwubkJAD0NTPJX81iv12UY7s7rmMrSj1uC1Umr1cL8/DzGxsaQCNeo8vQQ1nOhUJBhstksGo0GoFmHp17z8/Pa9CmtjY0NQNMu+KtU7kd5C4IA+XxeuufzebkWu5887Yd+2mlCKcPa2ppsn+l0Gmtra9JvY2MDhUIB+XwerVZLttd0Oq3td3Fx6fIV59YrLsS0Q7Uu4/TQYb4Kr9frSKfTWgNUzVcibPs8z+l0uqNc6v+6eoCm3er6ji59Qic7fh3k/oJ6vS77NF2FQgGtVkuG4e0xwWQ1ClQZk2xqtRrGxsYwNjYmy99oNCKy5roDgFxnT/Wk1gvp+fn5eVlOgsKm02lks1lks9mIXHR1pI4bqn+5XI6Ub2JiIhIeoWwpnY2NjYjch0GVJ+VRzVu9Xu8oYzqdjshzP/SSvSqLcrkc0UHlcI8EYvoPv3hc1Fb5WKbaVrQno16vY2NjQ6ZLuhcxfZK3eZ3/yspKhxtixi7g6ydoEc6G0s+u+L4vwu/NCwDC933px909z5Putm1L92q1KoQQwvM8AUCUSiUhhBClUkl7L0/PcRzp7rquECxNz/NknACEbdsyrBBCVKtVeQ+Hx8nzQPnq5s7xfT8Svy4fPC1eHp5vit/zPPk7Tga6+3V5gFK3juNId6o/XfyjZnV1deA0fN8XmUxGABDr6+sRP8/zhG3botlsChHWsSqD9fV1AUDkcjnptrOzo81HJpMRq6urQijpkox83xeWZUXC2LYtLMsSzWZTrK6uyrartm/f90WxWBSC5ZP8dnZ2IvE0m03huq4AIO/hABA7OztCsDzwdC3Lku2u3zztB2qfqjyp3/B6KxaLwnXdjnJWq1XRbDZlnTqOI3K5nCgWi6JYLMr22W9cguUrk8nIe5rNppQPtZt+4mo2m7I98PuoLrkcdemOGt7nwfq34zgyzzr4PVx3UzsiuM4jd56mmgbp+Gq1GglHaXA3gv6n9imYPMHaKdWFmudRQv1G7StcbziOI9tNs9kUuVxOgPXF/aLTX47jiGKxKHK5nEzXsiyZL66DiFwuJ1zXFZlMRsqL8srHl1wuJ3K5XMeYViqVIm40XlC7j+sLHEqP99dqtSosy+qoc+43yj6jk2ez2ZRtlfLuOE6k74+6XlVdsrOzI+uI641cLhepMxovSSae58mxRyg2BOks+m3btlafUXo7Ozuyj5dKJeE4jiiVSrJeeT300mc6mfps/OTl5n2MGNgIjVN+YkAjlCsWEaN8RIwB5jODj+ImuPLkilIdIAnuHndvXN66QeG5Yid4fJ7nacvI6eXP64TkwtNAH0YolV2X31FBaejK0A0qnyr7UqkU6ZRx4fpxq1arHZ2MDFiSKSl2TrFYFJZldQyOcXmJ8yPZUL+hwUaVFQ0ehKrIRJgnaAwFXbqjQlevapmoHfOBq9lsdrQ7Guz5IEB1QfLvNy5dvhzHibj1Gxf1G06cTHXpjhJVD/NLrXeOTleIsK64zo7ThaRvuVx4WDUc9Qv6n8uExgAel07Xcv3H8zhKPM/rkJva/zKZTKTvkSxHlSe1LVWr1Y48+cqDsGDyVyFDg4ehvJKBosNjEyAipt3r3DhqeiKMl3QTb3siNMDUfrlfVHkKxYAm1LyQ8TeqelVl4bpux3hB7V41fKmPqO1AdNExrutGHkoItU+SfNTxg+TDHyDi0iJ07YHGMMuyxM7OjnAcp6N8Qggx8Ov4+++/X3UaCFpQ/+STTwIxr+h7sby8jNOnTwPhzvyvZfQ1s7Oz8vfCwgIQTj0/9dRT0v2b5rHHHpO/9ytPHfVwd+wgsqXd6KdOnVK9vnEmJyeRy+Xw1ltvRV7JffDBB3juueciYYflww8/xPb2duQVwtNPPw2E7QcAKpUKfvWrX0XuO3v2LPb29rSvP/ulXq/jrbfeQiaTweTkJAAgmUzi3Llz2NzcjLwaunDhAl555RX5f61Ww9LSUiTfS0tLAIAvvvhChrsTuHLlCgDg6NGjMq9Hjx4FwvXinHQ6jfHxcfn/8ePHYds2tre3gQHj4q/2Go2G3EVODBLXnQrXgSdOnIh9TTw5OSk3K1UqFdm2b968KdteN9Lhsh4ul6tXr7IQX0N6OZVKIQgCGV7XT3zf7/qqfXl5GQjHin7yOAyTk5ORJUK0FOPVV1+Vbp999hlqtRqCIMD8/DyeffZZ6TdqgiDA+fPnO5YtpVIp7O3tYWZmBvV6HYVCIfYkkfHxcVy/fr1jWcTa2hosy5IbQnUc1Ea2++67D67rRtpevV7Hz3/+czXoyGm1Wrh161ZHuVdWVuTvIAjw7rvvwnGcA2lrVBdqP/jwww+BsM44MzMzAIDz589H3LtRq9UiNgbxu9/9DgBw8eLFiPvPfvazyP+//e1vAQD/8z//E3EflGQyiU8++QTtdhs//OEPUSqVOsqHYdaEplIpqcTAhBoHV0BcieTzeYjwWJF0Oo0TJ04od3ayubkp1xeolcgplUpAqNxqtRqWl5dHZqzMzc1FBvy49VHdoGNWhBBYXl4eyFjsRRAEmJqa6hho47BtW8rUdd2IET9qfvCDHwDhADUoS0tLaLfbckCq1WqYmJjoUCjDcvv2bTiOI+uFX5cuXVKDjwRqS1NTUxgbG8Of//zniP/MzAxs25YDYRAEuHz5ckQ5ttttlEqljjwLIQ60Lofhq6++AkKDSXf1ggwgDBCX67ry4SKdTuOvf/1rx8kL/cZF8P7PNwepkL6itPn6roOAr8+fm5uLNezo4RyhgVer1eSkwCBQ/L3685dffqk6daALQ/2jUqkAfaQzKhKJBM6cOYNz587h+PHj0p3W2R07dgyPPvoo3nvvvch9o2Jubg62baPVamnbC60JXVxcxDPPPCPHO5VWq4Xbt29jampKGqpTU1N4+eWX0W631eCSW7dudT19gUPte2xsrGMNbRxkWJExdOHChQ5je9S0Wi1cvHhRawQR5XIZtm0jmUxGDNNRMTU1Fasvbt++rToBGqO0H+Lq9pFHHlGdtMTVvU6f9WJ8fByu6wIA/vrXv6rewDBGKABcunRJGk5xQiWOHTsmf/NNSmALVU+dOtVzgxPC40Ycx0GlUkGiy9FP3OBcWFhAEARdjdZBoAGf8nvixInYfHSDFk5zI30UbG5uDhSf7/sQQqBUKkm5DmNY9wPNZvm+3/PhRSWVSskn6EajgYWFBTkbPgqOHDkSO8hxeXzwwQcRP4QKbpiF7NSWfN9HJpPB1NRURzyLi4vwfR9ra2tYXl6WR+8QlmXh5s2bETfioOpxWO677z6AGS+cfvNKBmS/ca2srEhjcnd3F2fPnu14cOk3LoIbqJ7nqd4SeqhpNps4duwY5ubm8Kc//UkNNjLy+XxkgoDrXs7k5KTU35VKBQsLC0MZAaRT+cOBTob9vO3RheH9A6HBo26COQiEEHjvvfdw5swZudmj1Wohm81ib28Pu7u7yOfzuPfee9VbR0KpVMLq6iq2t7c7yktH3P3iF7/ApUuXIkayygsvvIDNzU2srq5KQ9XzPKlH4zYl/v3vf+97FpDa97lz51CpVPDCCy+oQToYHx+H4zj4y1/+giAIOh4KR81XX32FixcvSuM3jtnZWXmCj23bHbp4v3ieh1wu11X2tMlV5ciRI6pTV65du6Y6SUjf9UINR/rM932pz3oZorVaDZZlwXVdLC0tafXpUEYowqdSUsBkHXPonFDf9+G6LoRycH2hUJA7pWdnZ/t+dcgN4EqlohUCGSwIjSz+5A/2hScKOwxcaavGdS9qtZp8Ml1YWNDOAgyL67pDlYkb7ltbW4Cy8003uAzD22+/DQB47bXXuj4102svDhmd09PTyGQyQ5Uzjunpafi+3/FA0Wg05ExZLpfD9vZ2R0d644038Pjjj0fcBiGVSslX7CQfIp/Pw7ZtnDlzBjXNsVXHjh1DpVLpyNPa2hoefvjhiNs3zRNPPAGEcuR132q18Pe//52F7FSirVYL165dk+UfJK5ejDIuHclkUrbdzz//XPUeKXwGx/d9rX5E+HBDDLIEhx7UuLHLlzqpr/oQtu9ub3ts2+7al/nbNxozwPS42mdHwfHjx5HP57G9vY16vY5//OMf2N7exvT0tBr0QJiZmUEmk8H29nakDjc3N9Fut2WbjaNWq2FzcxOZTKbD+PrDH/4Ay7KwtLTUYfQEQRA7kxZHMpmUb214/XTj5MmT8H0fuVwOL730kuo9Unzf75BBHKlUSvZVVRePgqWlJSl7PhFz8uRJgC0DIah++BKsXriui3a73TEm3LhxA5ZldbwVvnHjRuT/Tz/9FADw05/+NOJOcBnpluIQ9XodW1tbOHv2LFZWVpDJZFAoFDraHGhxqLqodFD44nH0saiXb1YSykYlvpA4blMOT0u3aJfuUzfaqIvceZx8gT3Pg26xPHdTFzYLlj81faGUlRbE0/+6xb9xMiBogbGaHrkhZlE52CJlnfx5OF0Zh4XKa9u2qFarkUXa6+vrwnXdjp3wBC1s17Uvile3U5m70aYTLku+YD2TyYhSqSSKxWIkDO3uI3mU2K5CFcqLTm7kR/fpdi9yaFOOLh2eJ9rp6mo2K4keedoPJONMJhPZ7KDbIUvltG1bFItFUQp3ZPI2QO2ONl+QfKzw9IBB4lLhG44GiYu3D36fTqYkD2o7vH51dTgMXGdA6d+qn66vCM1GBQ7XhaRTuB5SdS5Pj+sUCsd1lHoPz59O1+r0W79l7JfV1VVRKpVk3r1wtzy1OTpRI5PJiPX1dVGtVmX7LhaLsfpqEFT9xfs2yZE2zeRyOeGFG4iov1TDkwn4fSQXtf3xnddUZt/3heM4He2B2j3vC9R2CPXkE2o/at3yjV22bcv/eZy8f+0HXd9U0/HDTc5UfwfRVyk+SoPyRRt2CJKzekKLTl/H6Vzyo7ZL8qf2zPst9SveBigcLzu1/W76jNogQfHwvFE8arlHYoRyg1K91AZNqEqEOgD9TwpBjY8qhCsmCq/ihoaCCgmQ50/ND8JOrXPvla4aRjUc1XJVq9WI0ufh1bCIGfBUf7VOSHnzsusuXSNFl3ocFur8PJ9kAHRLayc8zkiFy2/Qi6DOxY06tYPTLj/KL9+lSvB2TBcpg7h82ratbUuEpdmBT+yER34g7OA6A7RbnvaD2g8RylNNj5etVCrJes9kMh07Jh3HkcqX7s/lctry94qLo5M9l0G3uHT3qfE5jqOVB/qo337R9XeeBqHKX9VBItR5OneheSDncXEdwVF1jhpOl3dep3Gyo0vNa7e0hmF9fV0aApQebwP0AGyFu9P9cLB3HKdDTwyKKmOE/YiMO4T10Gw2I/rH8zz5kFosFiMypHEiri3wsvaSfa9wlmUJN9xx73mejLsUjuNq+ajMZJip8e1XN6npUd/TpaPqfdUI2w9xsid9zcvabDZFMTxtBV10hlo2Xj7C9/1IGvTwxKG6LBaLsu+qY1pcfVPems2mWF9fl3leX18X//Vf/yXD8T6rxkHlHokReqeie4Iw3N0Ui8WRDDjNZlNUw7Pp7nRodvi7gjPio1oMeqrhzJkOPtCNor8dJLZtax9QDP1DhmPcQ9zOzo7IZDKx7cVw90EG5jddp0OvCb0Toc0+g256MdwdtFotvP/++x3rIochmUwin8/LtcN3Mm+//Xbfa5oMhjhojTetMdza2up7A8qdSjabxalTp7quKTX0x5tvvhm7G3t8fLzj9A6DYRR8q4xQWiT76aefolwuj3T3tOGboRZ+djKdTuP73/9+x+7w/XL27FnV6RsnCD/PNjY2hnT4Cca4weHbRqvVwu7uLjY3N7tuXDMMDm04uHr1Kur1+lDHMt1JJBIJLCws3HFHkd2NTE5Odt1pjzDM3f7QYvj/oQ1JH3/8sep1uNCU6LfhdTxfv6mukTDcndAiezvcxPRdoBlugolb3/ltRbf+yPTj0cHXZHZb7qBbc9YtvMFguLtQ16p+k/ZfQnxtgCKRSCD8aTAYDAaDwWAwHCjfqtfxBoPBYDAYDIa7A2OEGgwGg8FgMBgOHWOEGgwGg8FgMBgOHWOEGgwGg8FgMBgOHWOEGgwGg8FgMBgOHWOEGu4KstksEonEUFcQBGp0BsO+UNtYgn0ko1AomDZnMBgMfWCMUMNdwaVLlyCEgG3b0q1arSL89Ky8OJ7nQQhhvqZiGBn0MAQApVIp0vYWFxeRSCRQqVTU2wwGg8GgwRihBoPB0AfZbBabm5tA+ICjfqnn0qVLKJVKETeDwWAwxGOMUIPBYOhBuVyWBqjrurGfL5ydnY3M1hsMBoMhnoGN0Hq9jrGxschaqEKhEPnOc6vVQqFQkP7pdBrlcln6q+v7stksAGB+fh6JRAITExNotVqo1WrI5/Mol8toNBryvomJCTQaDRkfwjTn5+dl3iYmJuQarXq9Hkkv7qI8lsvlDj9dOIp7YmICifBb3/Pz81IWajxUTjU+yud+aTQayOfzMt58Pt8RN5dFNptFNpuV+Se3QfKt1mW5XNbK+5uEvsXOy8PzTeVToe/W68qQTqc7yqi7+NpAVS7pdDoSJzRtRr14farlUv3V9NRLt25Rdw8Pp9a37qrVarHx6dLsJcsgCLRyUdv2QTI3Nyd/9/rm+rFjx4A+6jKRSODFF1/scKN2wdsftdFecaoy4bLlektt2+SvutH6VtVdd+2XbDYbGVvS6TQ2NjYiYTY2NiJlyufzcixQ21rcVS6XO8raTccRtVotouu7jWkJRR6qv07P0jUxMTFQuYluY6Cuvvk1Pz8v46nX65FxJG58V+2ARBddOghqnPV6vUNWlE4vW2MUqOWdmJiI6DiC8jAxMdExxiTC9tBv2XRtGZp2tN+yDpqOmlf1Gqpv0fc7+/12qOd5wrIs4Xme/B+AyOVyMozjOMK2bdFsNkWz2RS5XE4AEDs7OzKM67oCgPwe+M7OjsjlcsJ1XVEsFoXv+2J9fV0AEMViUWQyGVEqlWRclmUJ3/dlfJlMRqyurgoRfiM5k8kIADIMfTdZ/QYyfSd5fX094l6tViPfraZw/Pvl6+vrIpPJyDRWV1cFAOG6rgxD37Pn3wCnb4MDEM1mU7rvh52dHQFAKwO1bL7vC9u25f9UhzyPlG9elmazKWzb7sg31SVPh+SdyWSk2yig9NW6IMgPgGyjQvluNvej+OLaBblTOA7FxWVJslDTJ3lSWJ4f3o5FGAe59YqPZMDD8fgoHNh32OPCUpkpHf59YYLLSZe3arUq86SWmeJTy0t+/Lcar1DS09X9QaF+016Xfx2lUikiF7qf6sH3fVnXPH6O53kdbbOf9iFY+/Q8T6av02lcnjwvlC7lU42Xt3s1j8PgOI5wXTd23KB6IB1H//Oxh/Kv5ken5wfRcTQGkdwpPi5PnR7k0Pig07MUz87OjrBtW1iWJdPvp9yixxi4uroq2wfdz9sh5Wl9fV07vuv6Pd1PYbgc90Pc+KgbS/uxNfYDtQfeLqn8PB8UNpfLRfohlDGQl43rEV3boLasjqG92tmg8HS4vEmWajrVPmyjQfrWwDOhALCysiJfR01OTsKyLNy+fVv6t1otZDIZJJNJJJNJvPLKKwCAf/3rXzLMQw89BAB44IEHAABra2tYWlrCysoKzp49i1QqhePHjwMAPv/8c1y6dAmzs7Oo1WooFotot9v4j//4DyB8ygOAmZkZAEAqlcKbb74JAFheXpZu3bj33nsj///0pz+N/E9QfgHg1VdfxZtvvinjnpmZQSaTQaVSkTM+FP6+++6T95Fc6Pco+OUvf4lcLheRwfvvvw+E+eSkUintLBzPI+Wb6omwLAtQ8k1huAxJJqMq3yhxHEe231OnTgEANjc35ZNZEARy5uvkyZOAMrs1DCdOnABYPKlUCo7jAOFu6kE5f/48AGBhYQFQ6unatWvyt47Tp0/L319++aX8/Ze//AUAsLi4CCh9hmRz6dIl6aYjn88jn88DrMwk46eeegpgfbIf7r//fvlbbYuHxa1bt1SnvpidnY19bY9QvisrK0ilUqhWq9Kdt7ELFy5gZWVF/t8v1KZs28bk5CQee+wxQJnR7RfKZzd6tYt+oHRIP05PTwNs3PjnP/8JAHjiiSeAcOxxHCcy9gyi5/vVcUEQYGlpKaLrn3vuOViWha+++krep9ODnEceeQSI0bPE+Pg4Tp06hXa7jX/84x9An+XuNQbOzMzEtsVUKoWzZ88C4VjBl5tMTk4ik8lEZkJpbHvppZekGzRyHJa48VE3lvZja+yHN954A3t7e5F2ubKyAtu2sbS0FHmzk0wm8aMf/ShyP7nz3/Q/b6tUJl62uDG0VzsbFJ4OT2tsbAzQpNOPbdRv38Iwr+MnJyflIIPQeIRi6Hz22Weo1WoIggDz8/N49tlnpZ8OGuDiFMhTTz0VyTQ1/s8//xwA8OGHH2J7ezsy1fv0008DrMMMilrxKo1GA77v4+mnn46ku729DSiD+0FDeVE7QCqVQi6Xg+/7Ha/p4mQdR6vVwq1bt3rK5W7jwQcflL/J2OBGnDpIXL16NfJ/P3DZq50SoQE8KGTQ6R4mekFGIBkoBDeQ9wsvM5cxAFy+fDny/93GQfTtfD4v15KqhuIw9UEy1rUPVRfcKXBDNwgCvPvuu5EHxuPHj0MIgfHxcdRqNWTZRrFREKfjLl68CITpE6lUCnt7e9J4GxX1eh1vvfUWMpnMQOUexRhYr9fh+z5+9rOfRdw/++wzfPbZZ/J/Gut/85vf9B33QTGorTEotVpNPsBxfve73wGsbXD4g3M/NBqNDkPvm6Zer2vHKvRhG+mI61sYxgjlJBIJnDlzBufOnYt0UFpDcezYMTz66KN47733IvdxpqamMDU1pTp3RVXKt2/fhuM4Hcf1CCFG8oSug5606Bgg9VKfOufm5iIKQlUi+6HbU59qmA5Dq9XCxYsXMT4+rnpFmJqaipTxbuOLL76I/AUrEx27s7u7K/36pZ+ZNK7MgyDoaOMqs7Ozsn0nEokOw0UHtcG4sqysrEAIgdOnT0fCDQMv84kTJyJ59H2fhRwOipOugzSs1EGon/ocBpqBRjgbWi6X8fzzz0fCoM/2QTLe3NxEIpGIbJbS5Z/keSdsqiqXy7BtW846cWht5NbWFkqlknybsF/61XH9wPWgbu2mDuqbU1NTGBsbw5///OeIf69yH+YYePz4cXieh+3tbdi2PfD4PQi8j+vSGcTWGIZ2u606AWxWW+XmzZs9+yaH1v52M0KpD9PVj67fD2tra3j44YdV56Hp1bf2ZYQKIfDee+/hzJkzmJiYAMIEs9ks9vb2sLu7i3w+31XAnuchl8uhUqlEFkf3w5EjR+RfdUAldAuI+6HXE94999wDxCj0IAg6BkX1TEFViYyC69evq04Syi/C/MU1CJWvvvoKFy9elK95uqEa5Hcb6owdNGeRxrWzbqizqToGUVwEbVSoVqt9HQ1EbZAMlIRmIwEZIp7nwXXdiN+wqG1/FG2D6oXKPTU1NfRSiV6k2NIJANja2or4jwr+hmlubg5Xr17teJgdFNu2O2TP0yFInqN4QNgvs7Oz8H0fqVQKtm3LgbpWq+Hpp5/G3/72N6ysrPStw3rRr45TNwshZnwhPbi+vo7Lly9jeno68jpbB++bmUwGU1NTA5V7lGPgxx9/rDqhXq9HxsR77rkHe3t7yOVy8DwvEnaU8HarpjOorTEs3ZY38dfnYK+b+2FjYwPf+973tPXJUR8u+tH1w7K2tobnnntOO2NJ9LKNOP30rX0ZoQifivL5PLa3t1Gv1/GPf/wD29vbcj1PPywtLcGyLCwtLXUYb9AYVxTm5z//OQBgenoavu93rK1rNBqRNTuD0OuV2/j4OCzLQqFQ6HjSXV5e3vfgMQiTk5OwbRvvv/9+RwO5fv06HMeJNPTl5eXYdR0qvu93bUB3O3zWk2a8fvKTn0g31eBQ21g/9GoL3MCp1+tyHWo3stksfN+HbdvI5/O4efOmGiQWblTxGXl6dUuvQNW2NAh89lBdwsB3XJMRPIwRjnBtHkHp8J3Ao4LPyPE13zpUw34Q+ACjawf9tg+qX9/3I3mt1WpaHXunkUql5Nrlt99+GwjXQVuW1XPQHpReOo5k+fvf/z5iTDYajYj+UKGxka/v7EUqlZLrGgcp9yjGwMlwf0elUomMaa1WCxcuXJB9NAgCOb6/8847MtxhM4ytMSiu66LdbncY8jdu3IBlWRH9U6vV8Oijj0bCdaMfA/Qw2d3d7WmAog/biNOrb2EYI3RtbQ3lclkqtnq9jlqtBsuy8PDDD8sZt3fffRcbGxuo1Wr493//dyB8wqKnOxo0//nPfyLFFr4/++yzHUbd5cuXpeIMggCvvfYaHMeRT/TPPfec3BA0MTGBcrmM+fl5zM3NSQFQflutVkSRkIFLi7/z+Tzm5+fx8ccfR2bGKL985nNlZQXtdhvT09MoFAool8vIZrN45plnZBgKzxUBz0O3wWwQSGHlcjkZ59raGi5fvhwZ2NbW1mBZVmTQp7JzQ4byTYuTEeabnra5DHldEnHyPkj6lSXfhESGi+M4Uia08B+hwUFhy+VyZFPPINDGE9r8EwSBNAC5gbO4uKidqVJRl3P0W3aEfZbup9evQRBEZsEGiU9HKpWSM6mbm5tSiddqNTz//PNydoHqIm79US+Fx9dk0TpZ2qyFfWwkU0mlUhH52LbdYczR0ST7ef3JD8DXtYN+2weXATdMtra2ej4UfRMEQYBCoSDHh1arJdcuU70eOXIE7XYb5fAYuPn5eezu7uLatWvY2NhAEASxekfV8xhAx42Pj8N1XWxvb+Pxxx+X48svf/nLyOYc3WQJHxt1qG/SyOADgB//+MdAn+XuZwwkKE3dgysf0+bn51Eul/H444/LZSGtVgu5XA7tdhsfffQRkskkbty4AcTENwy87ngdqvnu19bYD6dPn5aTTdTf6/U6zpw5Izcrkdv58+cjfZOXQfebv50kGXI7gbdljs4W2Q+UjjqLq/aZQWyjfvsW8PV0txBfvx+TW+Z7QUcTgR3lwY9EKBaLAuExSqurq8L3fWFZlnAcRzSbzcgRLHS/YEcCgB03gvAoCrrHsixRLBYjW/xFuP3fdV1hWZa8Rz3igl9COQoG4ZETdPwBP5JCvZcfT8BlYdt25JgCfgQKj1ONTz1aZVg8z4vUSy6Xi9SLWl7d5ThOR76pvGpYLzw+Rg0bJ+/9oKaj5oMf3aRevu93HD3D4+N1zVHT5PWupkfHeOjSJrrJRT2mJ+6itqLWkZqnarWqTY9farl5/un4HR6et9NeZY0Lx4/soPzGHXHF41XLq16640Ewgnang8fPL94+OLrw3Y6YIj3EGbR9iB7tTZcnnYzVfKj+ahvaD6oOtywrIlM6vojSpaOFLMuKbe8iph+rZe2m44hSqRQZX3h7V9Ogi3Twzs6ObNvkpuaBLtu2Byo3ocqPj4GELp/q+LO+vi7Ty2QyEX+6h44SUsswivagy19cOr1sjVHg+37ENslkMpFji9S8xV1CUzbd/Y7jDNSW94OaDslVl06/tpFanl59aygj9DDhhTDsD8dxxOrqqrZzNptNsbq6OhIlcieiGqF3GpQ/dUAgevkbvj2USqUOg75X/ffyNxgMBwMZaGqfJejsVYOegV/HG+5efvzjH2NmZka75iOZTGJmZka++jIcPqVSKfZVaUo5S9Lw7YHWsNKShbgdtqZ9GAx3Jn/4wx+0fRbh2uDXX39ddTaEJMTXs41IJBIIf94xNBoN/PCHP0Qmk4mcU2YwDEoQBHL9o+M4+1q3ZzCMkkKhgEqlAtd18eSTT+KBBx6INTYNBoPh28QdOxNaLpfxwx/+EADkIbzqRgCDoR+4AQp27tp+N98YDKOANn1UKpU7duOQwWAwHAR39EyowWAwGAwGg+HbyR07E2owGAwGg8Fg+PZijFCDwWAwGAwGw6FjjFCDwWAwGAwGw6FjjFCDwWAwGAwGw6FjNiYZDAbDIRAEAa5cuRL5NN/169c7vkttMBgM3xXMTOhdDH2rWnfxb2Zns1npzr8jbfiaer3eIb9+rlF9l9zw7adWq8G2bbz88suYm5vD3Nwc3nrrLbzyyitqUIPCsP0zYfSdwXDHY4zQu5jZ2VkIIeA4jnRzXRdCCMzOzgLhQdhPPfWU/JpKpVIx52MqTE5OQgiBYrEIhIfZh5+0jVye5wEAbNuG7/tSxgZDN+r1OgqFAqrVKjzPg+d5EEJgb2/PnAnaB9Q/+RehbNvu6J+lUkn6Ux9eWVmRbgaD4c7DGKHfAuI+F4bQ6JydncVjjz0m3bqF/y7zs5/9THXSkk6njQwNfbO4uIhPPvkE+Xwek5OTxvA0GAyGEGOEfoup1+tyljSVSskZA4PBcDgEQYBUKoXx8XHVy2AwGL7zDGyEqusQs9ksEG5s4hf/xOba2hrS6TQSiQTS6TTW1tZYjECr1UK5XI6E2djYkP5q3OVyGa1WS651nJ+fj8RVKBQwNjaGRCKBiYmJjoX/vdYYZbNZbRh1DaAuTL1eR6PRkGXh5Wg0Gsjn8zJsPp8/0E+RXrhwASdPnlSdUavVOvJNa6cKhUKkvFQO7sb/1xEEQSRMOp1Wg3TEo67d4vlQL2pzdxIHVbe94lXlmAjrpFarYWxsDGNjY5HlFxsbG5iYmEAikcDY2BgKhULEn68fToT1HdfO+3WjdHlbyufzaDQaQEw/isuLWt5u+kd3f1xaw6LqLdJNxJUrV/D8889r5U7huuWJ+6nlScTInOupbrpXja+bfFS3er0eWxeqDtaFOUxUXaLmO66f8vbKZarTn7qrl05TxxMoaaqXqkfVcqj+anr8iqsHtU3wMujahnp1y4MuzV5xxvVvXVzDoMqQromJia42iJq+6q+2F973uV+3+k4kElJHDKo/E0wfcdT6VS/qC+q4wy8eZ71ej5Rtfn5e5rnfskGEsJ89qVarAoAoFovSrdlsikwmIwCIZrMp3YvFonBdVzSbTdFsNoXrugKAqFarMkwmk4mEyeVyAoDwPK8jbt/3hRBCrK6uimKxKHK5nIyr2WwK27a16fG8CiGE7/vCcRz5v+d5AoBwXTcSBoDIZDLSTYWHoXK7ritKpZJwHEfs7OwIIYTY2dkRAMTq6qq8j8q0vr4eiXNQqIw8/5SvOKgOAUTkIIQQpVJJlEol+b9t2zIsufM0OSRHcqdwPA1yo7xSXmzblmGEEMJxHBkX1XtcnkcB5T0u7jj/g6rbfuMl+fG26ziO7B/ULldXV4VlWbJfeZ4nLMsSlmVJ+QpWPzwNXV/QuTWbTWFZlrBtW6ZLcqNy0P+5XK5rXCImL7ryUt+Hon90+obkqqY1KLlcTmQymYhOUuN1XTdW7lxnkJuafxH2R5IV14U8HPUV0jeiT92rk6+uLnQ6WLAyc/1KcZKu0OnWYeA6S9UVIpQT+at9lOsr8uPxUd0Q3J3CcZ3I0yJ5ktx06VP9UBx0vxqOwhIUn1peik8Np8Y3iA7lblyP83qk33FlVX/T/RReTVOE9aCTIS9znPsoUOt3Z2dH2LYtLMuSfSyu33HIbuF9qVgsRnQE1TsfRyk+tU5XV1eF53kD6U+Sr+/7HXYU4bpuxI3S5f2adCmFo3xz3bG+vq7Vf9TP+ymbCF/Pfv2ji8GiQkLgnVJoEiLB8EprNpsCrCFRA+Bh1tfXBZTKVOPWNWbXdYVlWaqzFCgXsggbCBFXJsR0HA4P4/u+Vtnath1pNILJZ7+diitY9eoGv09tlBxuhBI6JcXDkgwonE658Qati4vqHKzuqDPsV2Y61LyqxPkfVN32G6/adrlSJ+g+UmSEzqAjGavKS1d2nZvjOBE36s/cQFLDiJi4dHlRyyuUQYKju19V2MNAcuNlEhqj13EcYVlWR30MIneHPczS/3HlJPrRvaJLmjr56NJVB3AejtLW1dcwUFpqGQgqiy7vcbpOF57CUhrcACJ4WjoDisfH801p87Bq2+D3UhheXn4vyVSno8UAOlTNY1xZiF7+PD5Kl/KotjWur7rFS+66ut8Puvap6xe69s9R76GyqA94lmV1TIqJLvEPqz915RJhfL3KBeUhVC2bCOtTnWTRPaiKmDSIgV/HD8KVK1cAAEePHpVTsEePHgUA+L4PADh//jwcx0EymZT3HT9+HEIIHD9+XLpxyuVy7GtmvgGH+N3vfgcAuHjxYsT9vvvui/y/X1qtForFIk6fPh1xbzQa8H0fP/rRjyLuqVQKuVwOvu/HvhIaFNd1I7tIE4lE7G54ns/FxUUgnF7XyVbl/vvvl79v3rwJhK/hqV4J2tl66dIlAMCnn34q/R544AEW8muuXr2qOkWYm5sDAJw6dUr1+kY4qLodNt4gCHD+/Hnk8/mIO/XFRx55JOKez+dhWRYqlUrEfRD46+dGo4Hd3d2IP/Xn8fFx1Go1ZLNZbG5uRsLsh1arhVu3bkV0SBxxfWFQPvzwQwDoWOs5MzMDhHqNaLfbHW2d6ocvFXrppZdg2zZee+016Ub5VdMBk3sQBLh+/XrErx/du18ajQbuvfde1RmvvvoqAOA3v/nNyOR9UNi2DQCRNnv58mUgfJ2ooutzvdja2pK/ud4kuH8/pFIpme8HH3xQ9e6JTofycVOXx0HhZVI3cfIx4E6kXq/jrbfeQiaT2dcmQrI3uB2TSqWwt7eHs2fPspDdGUZ/BkGA1157DZZl4bnnnov46fqsSrFYxPb2dsfyIoLGp6effjryin17exsA8OWXX6q3xLIvI3Rubi6SAVUwdCiz0Bx387WxPTiJREJ2IpV2u606AZqBd1A2NzdlGXXrvijM0aNHcfnyZfzrX/+K+Kn/c1QjYxTk8/nIsU3q2iQilUrBdV0gzH+9Xsfi4mKHAdMLGmj6aXhksMahGjCEbdtIhOvTXNe9Y45HOqi6HSbeubk52LaNVqvV0T75Aekqugc3AJiamor0bx2u62J7e1v2jb/+9a+wLEsNJtc0bW1toVQqRdonh/e1bn2daLVauHjxotZIU2k0Gvjf//3fjkFxGG7fvq06ARpjsVtamUwmorOSySQWFxexvb0tjdPl5eWOh8Jf/OIXsCwLR48exdjYGJaXlyP+GEL39lPXHFovpxvQjh8/Ds/zsL29Ddu2MTU1pQa54+CGOf2mtkgGHwDcunVL/u6XXoY496eNbL3Y3d2V9ZhIJPp6sOimQ/nG1eXl5UiZh4GXidoU5bHXGNAL3/cjbVVdnzksZM9MTU1hbGwMf/7zn9UgACuPurb7IBlUf9IxgufOneurPamcPXsW1WoVc3NzOHr0aIcepvGJjptTr0GM930ZoaVSKZKwKhiaadR1Qj4DsLm5qa1IdUMRADSbTdi2jRMnTkQWDhPXrl1TnSTqzGe/nYHOnGs2mzh27Bjm5ubwpz/9qSPMzs4O2u02pqentWVWZys499xzj+q0L/j5eJubmx0LlInnn39e/j558uRQDZbu4U/QuvIDwEMPPaQ6RdDNPiBUPCI8C7BSqSCRSGjbxzfFQdXtIPGWSiWsrq5ie3s7VjHfuHFDdQIAreGoKhgdKysr0n93dxdnz57tmJGs1Wp4+umn8be//Q0rKysdhhpHPaOVn/2o8tVXX+HixYty9rEbN27cwP/93//Fvl0ZFtocoHLkyBGAGaVxxos62Ofzedi2jYWFBTQaDVy+fLnjoXBmZgZ7e3sQ4VmjKysrHQ8m/epeop+6JjY2NvC9732vaz3ec8892NvbQy6Xk+fr3smo9UBuXCZCiI666IdeOpX7X7t2DU8++WTEXwdtRjlx4gSEENr8q/TSobRJR/dGaz9QunTt9+xWXi9ghtd+IXvG931kMhlMTU1pbQwR2gLnzp1DpVLBCy+8oAaJoItD1wfjGEZ/NptNvP7663j55ZcjG7fRRRfFsbq62qGHaezRxRUEwUBvDPZlhPbiiSeeAADkcrmIkdlqtfD3v/8dCJ/qAeCNN96Q/ggFr3vKTiaTePvttwEAL774YiRe13XRbrc7KvjGjRvaaWmdgu5GMpmUr7A///xz1Rvj4+MoFotot9uR2cfJyUnYto3333+/I83r16/DcZyuDWsYUqlUpOHMzc11pI0wb/Tw4Pt+x1KCOPisJylN/ppoc3NTm95PfvIT1SnCU089pTpF4HVIr3xqbLfqYXNQdTtsvDMzM8hkMvJVCkFy++Mf/8hCf821a9fw+uuvq84j4/z587AsS5vf/eD7fl8GKDFKA5RmJ9WTPsgopS8hkdz563mEOnB7e1u7rGRxcRG+72N6elouJRqUfnTvsPQyQIMgwPT0NADgnXfeUb3vKMjYOnbsmHTj+pD3vVqtNtDgSvQyKrn/1tZWT0M3CAI5u0w6fhCjMU6H0mzXwsJCX2+1usH1OJ8YCoIAZXbKBY3V6nKVfqE3eRhyqYSOVCol+y/ZGirJZBIzMzOwbbvjDTBB7ej3v/99x5KlL774goXszjD6M5lMypnupaWliF8/aW9sbODEiRNwHEerY8fHx2FZFgqFQseD+PLy8sHPhJL1y1/x8VeA1HHHx8fl67rHH38c8/PzKJfLyGazeOmll4CwQ2QyGVQqFWSzWZTLZRQKBZw/f14OGjzuVquF48ePS4Mzm81Kv9OnT0vBUIOs1+s4c+YMVlZWkEwmsba2hmw2i1qtFnkCpTLx2VF18G+1WvLVF3UyCkN5+Ld/+zdkMhlsbm5GDFFqzLlcTt6ztraGy5cvdzxlDIqaT2J2djYyO80VLWdhYQEIO02vp3YybPi6Hq40aW0plGUAZCBOTk5KxXHhwgWAPRXatt3zNTt/9UizqpR/sPwNw8cffwyEr7p0MqUyq/4HVbf9xqv2x3fffReWZWFubk7KNpVKoVgswvd9+QqpFR6lY9u27I9gfeCf//yndOPtnCtUlVarhc3NTezu7spwR44cQbvdRjk8Amh+fh67u7u4du0aNjY2EARBRz8iKC/8iZt+j42NSbdWqyWXcvA46H7+FoSUpprWIOTzeam3yBANggC//vWv4bquVMLJZBKlUknqA5LfG2+8gUwmE5E7QXFDMRi68cEHHwCsbP3oXgxQ1/w3n4GnmXVqe61WC7lcDu12Gx999BGSyaQM0++bp2HpN36+/p3gb4S4PuE6bGtra6DBleDLo2idIP11HEfqz3q93vNNETRv+2q1WsdbyG7odKi6LlU3wzUIXI+fOHFC/l5eXsbs7Kxc+7+1tYWtrS3tOtS4pVkcvpZ9mLqBpqytVkuOTT/+8Y+lm5qftbU1+L4fK3u1D5bLZczPz+OXv/xlR7/n/UsdewbRnxzSS6RL6Ii2q1evSnnr0m00GnjxxRdhWRb+8z//E2Bv5LisVlZW5JvfQqEg9cszzzwjwyAmjQi0Qylu55IK3xXId2NxN3UXValUkjvjMplMx45SfnwI7RzjuzrVuEulkmiyI1l43n12NAGlpzvexbZtuYOL7yBEWCbaWaZetm3L3Wa6MJ7nySNgKC7C8zy5ewzhEQuqLAZBrQt+UR75bkO61N2YIpSBzl1ojmjicenQyUVFjUfd6ddtxz+UMvCdmMOgyy+UXYWqn+o/6rolesWryhGhDOi4DDWfq6ursj4ty4ocoyE0faFUKmnlo0OXF+oPlKbjOML3fVEsFuWu8bj4dXlR06Cyqfd7ntdxv8eOO+HXsDSbTVkOKLpBpZfcVVZXV7WnbKjoysPzUOqie1X5dKtrnZtaFzw+2v2rCzMoujzx+Hj/Vy+SIdcnap48Zbd2XJqELj01TmiOpFJ1mu5khG4X3xXOdbIbHrnDw+rSUy+uQ9VxolqtRvLE600NC01ZCTUcyZrnl7dXNXycfcGv/eyWj5O72pdVfyj9mOvpUngkFU+DdEQul+vYOa7WHRR5D6M/1fwJ1maoXLr73nnnHfmb7CadniDomCaEMlNtCF0aqg5IiHBhRSKRAK2xMHz3KBQKsWt10um0fN1j2ojBcPBMTEzg/fff7/lmwtAfhUJBzpp5njf0rNlBUS6X8Ze//KVjto3o5W8w3K0M9TrecPdDX7Kgqfx+XgMZDIaDp16vw7ZtY4B+x6CjoXTMzs7GLqcyGO5mjBH6HYUU3rVr1+Q6HYPB8M1AD4UTExN49tlncebMGTWI4VvM7Oxsz4eOuDdVBsPdjDFCv6PQrtwTJ0503b3JX8UjXLahnj5gMBj2B++Dn3zyyUA7YQ3d4a/iEZ6JyjccGQyGbw6zJtRgMBgMBoPBcOiYmVCDwWAwGAwGw6FjjFCDwWAwGAwGw6FjjFCDwWAwGAwGw6FjjFCDwWAwGAwGw6FjNiYZBiYIAly5ciXy2dbr16+bXfMGg8FgMBj6ZiRGqHoEBgC4rouVlRXU63V8+umn5hzKbwm1Wi3yLWAAsCwLH3300R33FRKDwWAwGAx3Lvt6HV+r1ZBIJFCpVGDbNoQQ8nryySeRSCQwNTWl3ma4S6nX6ygUCqhWq/A8D57nQQiBvb09Y4AaDAaDwWAYiKGNUD4j5rpuxzdt8/l85JBzw93P4uIiPvnkE+TzeUxOThrD02AwGAwGw9AMZYQGQRB5JRv3ObFUKoVSqaQ6G+5CgiBAKpUyX3IxGAwGg8EwEoYyQpeXl+Vvx3Eifio/+clPgNCISSQSPa9sNtvhVq/XgXDdKl1BEPSMU/00W7lcln7pdDrip96bzWa1eUH4KUvVXb3efPPNDjfKD30nOpFIoFwuR/JBqPfW6/VI/hNhHrtB4SYmJrTl4ZTLZVmudDqNcrmMVqsl/a9cuYLnn38eGxsbmJiYQCKRwNjYGAqFQiQcADQajUhaExMT2NjYkP5q2eLiUsurXiS7VquFQqGAsbGxjjBcRkEQIJ/PS798Po8gCAClTnQXz78OnVwobvTRZlqtFrLZbKQM6XS6q9zU+lf9y+VyR53Tlc/n0Wg0IvcbDAaDwXCoiBD2sye2bQsAAoAolUqqtxbf94XruvJ/ut+2benmOI78S/7ValX6izBt3/fl/57nyTx4nifv42kJIYTruhF3NW3f9+W9lA+h5IXS7eVfKpWE53miWq1q46Qw3WTXbDZFJpOJxCuEEKurqwKAKBaLkfA6ms2myOVywvM86QZAZDKZSLhcLicymYxMh9Lg4VzXFaurq8KyLBmf53nCsiyRyWREs9kUIkzTsiyRy+WECOVq27awLEvGxctG/5dKJQFNe6pWqxE3CsfbBdWt2g54G6B8qHmnNlAsFiP1ByASdnV1VcalEicXy7JknK7rShlRm+H3e54nHMeR4ajuAIidnR0hFLlRXCp0z/r6unQj+VD+1tfXtW3SYDAYDIbDZCgjFKFhpTMa+oXu54YgR+fPDU6dW5wRyt1pICZDgIyZQYxQTi9/MgB42kIxZONQjRURGmUYQO5kEBNq+Sg+MnQIyjfJx3EcYVlWx0MB3U/y9n1fWJYVMdrIqOPoyqbmTTADlVANRMHiIsOM6pvf57puh+FeLBYjZSR0acRB7UY1UlW5cHRlF2EeOfQwoCtrHLq869x6xWMwGAwGw0Ez1Ot4zs2bN1WnkUBrSX3fl+dPXrhwYaijnj799FP5+/7774/4bW1tRf4fNadPn5a/FxcXgXCX+cmTJ1mo/mg0Grj33ntV556oZeZ8+OGHANCx1nNmZgYAcP78eenWbrfxwAMPsFBfb0BDuFEN4Trgvb09zMzMyN30c3NzkXtU6HU6ALz66qsRv2QyGflfB93zm9/8JvIKnFOr1bC0tBR5Jb20tAQA+OKLL9TgfXPlyhUAwCOPPBJxz+fzsCyr4+iybvC11UEQ4N1334XjOCPfALa2tobNzU0Ui0XVy2AwGAyGQ2MoI5SvA40b9PcLNzYXFhZi07l16xYefPBB1TkCN5Rt20YikcDm5iYQk//NzU1pqFC4YUmlUnBdFwjjrdfrWFxclMZbv9DawEGN0Js3byKVSqnOktu3b6tOgMYo7RZHJpNBu92W/9Oa0MXFRTzzzDNdN6clEgkcPXoUlUoFxWIRjz/+uBqkJ8ePH4fnedje3oZt29pjwdrtNkqlUuQYMbqGebAh+IH9Ko899pjq1Bflchm2bSOZTMZu+qP2qVtLG8fU1BQSiQRefvllOI6Dl156SQ1iMBgMBsOhMZQRymfx9mukdYOMN9/3cezYMTz//PNqEGxtbQ002NPZlnRdunRJDQLHcaR/r41X/cDzffLkya4GnY6NjQ1873vf6zAM+8GyLNVJS9wmlSNHjgDMKL1165YS4mts2wbCeKanp/GLX/wCly5dwvHjx9WgEUjO1WoVlUqlY7ON7iFBxz333IO9vT3kcjl4nqd6w7Ks2Fn7UXzp6caNG6oTMID8ObOzs/B9H6lUCrZtazdFCSHQbDZx7tw5VCoVvPDCC2qQDqjte56HVquFTCbTt3wNBoPBYBg1Qxmh+Xw+YpzF7fBGuOt42IGOv8pOp9OxryV7GXVPPvmk/M1fzSPM30EzOTkp5eX7fqRc/TCsAVqr1fDoo4+qzhHogWJtbS3iTkbpK6+8AgB47rnnAOX1PMJX6dvb2zh16hQQPpS022088cQTkXC9yOfzeOyxx7C9vS1PQwCAL7/8MhJORxAEmJ6eBgC88847qjcA4NixY6hUKh0G59raGh5++OGI2yCQXP74xz+qXrh27Rpef/111bkvUqmUbCdvv/226g2ESxVmZmZg2/ZAD4OTk5P41a9+hXa7jYsXL0r3YfupwWAwGAzDMJQRCgCXLl2ShtXc3FyHMUfHJz355JM9jcQ4+Kts3RrKcrmsnR1VyefzcqZubm4ucixP3OvOUbOwsACEs6z9yKPVaslXrPfcc490pxm3bq+BEa47PX/+fOS1P8XH487n88hkMqhUKtIQDYIAv/71r+G6rjT8k8kkSqUSNjc35evfVquFN954A5lMRr7ave+++wAA586dk8dKXb16FQiN4nq9HkmfqNfruHbtGizLwv333498Po/5+Xl8/PHHkeUWNJtJM7KtVgu5XA7tdhsfffQRksmklBGf+Txz5gwsy8KJEyeQz+dRLpdRKBTwxRdfdBj4ahrdSKVSKBaL8H0/IpdCoQDbtjteefOyc6MvCAIUCgU569lqteRRaE899ZR0Uz8Ksba2Bt/3u87YqzPAQRDggw8+AAD84Ac/AMKHDtu2B14mYjAYDAbD0NAOpf3slAXbLU9X3K53oQmv7ojm0O5jFb4rPe5Sdxvzo6Wg7IpW73UcR5sGp5e/iuM4HTux49DFS7uceR51qOHiLqLZbIpisSgsyxII6y5u9/3q6qqUo2VZkaOHRBgXyYWORKIjgWh3upoPunK5nNylT7vzeRnV8LycFLdadn7/zs6OPMLIsqyO3fJCkwZ61CnRSy5COaVBl79msylc15X1YFlWpB7Ue9W0PM+TRziVSiXh+762jSI8fosf40SnGuhkYjAYDAbDQZAQXw9uSCQSCH/eUQRBgIsXL3ZsHslms0ilUrEzmb38vwkOa+a1XC7j5s2bOH36tHbWdWNjAy+++CL29vZUL4PBYDAYDIZDYejX8QdJgn0N5uLFi3LdHaeXganbcHTY0Fd4gvDrTg899JAa5MD4wx/+oDVAEe4mH3atosFgMBgMBsMo+H8xbImCV2urBwAAAABJRU5ErkJggg==;" vertex="1" parent="1">
          <mxGeometry x="90" y="130" width="673" height="92" as="geometry" />
        </mxCell>
        <mxCell id="J2MpZRXdgfdqhmIiV9mJ-66" value="subOnCourse" style="ellipse;whiteSpace=wrap;html=1;" vertex="1" parent="1">
          <mxGeometry x="320" y="450" width="100" height="35" as="geometry" />
        </mxCell>
        <mxCell id="J2MpZRXdgfdqhmIiV9mJ-67" style="edgeStyle=orthogonalEdgeStyle;rounded=0;orthogonalLoop=1;jettySize=auto;html=1;exitX=0.5;exitY=1;exitDx=0;exitDy=0;" edge="1" parent="1" source="J2MpZRXdgfdqhmIiV9mJ-56" target="J2MpZRXdgfdqhmIiV9mJ-56">
          <mxGeometry relative="1" as="geometry" />
        </mxCell>
        <mxCell id="J2MpZRXdgfdqhmIiV9mJ-70" value="" style="endArrow=none;dashed=1;html=1;rounded=0;exitX=1;exitY=0.5;exitDx=0;exitDy=0;" edge="1" parent="1" source="J2MpZRXdgfdqhmIiV9mJ-56">
          <mxGeometry width="50" height="50" relative="1" as="geometry">
            <mxPoint x="380" y="450" as="sourcePoint" />
            <mxPoint x="460" y="545" as="targetPoint" />
          </mxGeometry>
        </mxCell>
        <mxCell id="J2MpZRXdgfdqhmIiV9mJ-72" value="Name a course&lt;div&gt;to cancel&lt;/div&gt;" style="ellipse;whiteSpace=wrap;html=1;" vertex="1" parent="1">
          <mxGeometry x="460" y="515" width="110" height="65" as="geometry" />
        </mxCell>
        <mxCell id="J2MpZRXdgfdqhmIiV9mJ-73" value="" style="endArrow=none;dashed=1;html=1;rounded=0;exitX=1;exitY=0.5;exitDx=0;exitDy=0;" edge="1" parent="1" source="J2MpZRXdgfdqhmIiV9mJ-66">
          <mxGeometry width="50" height="50" relative="1" as="geometry">
            <mxPoint x="420" y="467.5" as="sourcePoint" />
            <mxPoint x="460" y="467.5" as="targetPoint" />
          </mxGeometry>
        </mxCell>
        <mxCell id="J2MpZRXdgfdqhmIiV9mJ-74" value="Name a course&lt;div&gt;to subscribe on&lt;/div&gt;" style="ellipse;whiteSpace=wrap;html=1;" vertex="1" parent="1">
          <mxGeometry x="460" y="437.5" width="110" height="65" as="geometry" />
        </mxCell>
        <mxCell id="J2MpZRXdgfdqhmIiV9mJ-81" value="" style="edgeStyle=orthogonalEdgeStyle;rounded=0;orthogonalLoop=1;jettySize=auto;html=1;" edge="1" parent="1" source="J2MpZRXdgfdqhmIiV9mJ-76" target="J2MpZRXdgfdqhmIiV9mJ-78">
          <mxGeometry relative="1" as="geometry" />
        </mxCell>
        <mxCell id="J2MpZRXdgfdqhmIiV9mJ-76" value="rateStudent" style="ellipse;whiteSpace=wrap;html=1;" vertex="1" parent="1">
          <mxGeometry x="320" y="290" width="80" height="40" as="geometry" />
        </mxCell>
        <mxCell id="J2MpZRXdgfdqhmIiV9mJ-78" value="makeNote" style="ellipse;whiteSpace=wrap;html=1;" vertex="1" parent="1">
          <mxGeometry x="430" y="290" width="90" height="40" as="geometry" />
        </mxCell>
        <mxCell id="J2MpZRXdgfdqhmIiV9mJ-84" value="System" style="shape=umlActor;verticalLabelPosition=bottom;verticalAlign=top;html=1;outlineConnect=0;" vertex="1" parent="1">
          <mxGeometry x="90" y="730" width="30" height="60" as="geometry" />
        </mxCell>
        <mxCell id="J2MpZRXdgfdqhmIiV9mJ-85" value="regTeacher" style="ellipse;whiteSpace=wrap;html=1;" vertex="1" parent="1">
          <mxGeometry x="160" y="680" width="100" height="50" as="geometry" />
        </mxCell>
        <mxCell id="J2MpZRXdgfdqhmIiV9mJ-86" value="removeTeacher" style="ellipse;whiteSpace=wrap;html=1;" vertex="1" parent="1">
          <mxGeometry x="159" y="740" width="100" height="50" as="geometry" />
        </mxCell>
        <mxCell id="J2MpZRXdgfdqhmIiV9mJ-87" value="removeStudent" style="ellipse;whiteSpace=wrap;html=1;" vertex="1" parent="1">
          <mxGeometry x="160" y="800" width="100" height="50" as="geometry" />
        </mxCell>
        <mxCell id="J2MpZRXdgfdqhmIiV9mJ-90" value="" style="endArrow=none;html=1;rounded=0;exitX=1;exitY=0.3333333333333333;exitDx=0;exitDy=0;exitPerimeter=0;entryX=0;entryY=0.5;entryDx=0;entryDy=0;" edge="1" parent="1" source="J2MpZRXdgfdqhmIiV9mJ-84" target="J2MpZRXdgfdqhmIiV9mJ-85">
          <mxGeometry width="50" height="50" relative="1" as="geometry">
            <mxPoint x="250" y="650" as="sourcePoint" />
            <mxPoint x="300" y="600" as="targetPoint" />
          </mxGeometry>
        </mxCell>
        <mxCell id="J2MpZRXdgfdqhmIiV9mJ-91" value="" style="endArrow=none;html=1;rounded=0;entryX=0;entryY=0.5;entryDx=0;entryDy=0;" edge="1" parent="1" target="J2MpZRXdgfdqhmIiV9mJ-86">
          <mxGeometry width="50" height="50" relative="1" as="geometry">
            <mxPoint x="120" y="750" as="sourcePoint" />
            <mxPoint x="170" y="715" as="targetPoint" />
          </mxGeometry>
        </mxCell>
        <mxCell id="J2MpZRXdgfdqhmIiV9mJ-92" value="" style="endArrow=none;html=1;rounded=0;entryX=0;entryY=0.5;entryDx=0;entryDy=0;exitX=1;exitY=0.3333333333333333;exitDx=0;exitDy=0;exitPerimeter=0;" edge="1" parent="1" source="J2MpZRXdgfdqhmIiV9mJ-84" target="J2MpZRXdgfdqhmIiV9mJ-87">
          <mxGeometry width="50" height="50" relative="1" as="geometry">
            <mxPoint x="130" y="760" as="sourcePoint" />
            <mxPoint x="170" y="775" as="targetPoint" />
          </mxGeometry>
        </mxCell>
        <mxCell id="J2MpZRXdgfdqhmIiV9mJ-94" value="" style="endArrow=none;dashed=1;html=1;rounded=0;exitX=1;exitY=0.5;exitDx=0;exitDy=0;" edge="1" parent="1" source="J2MpZRXdgfdqhmIiV9mJ-85">
          <mxGeometry width="50" height="50" relative="1" as="geometry">
            <mxPoint x="430" y="555" as="sourcePoint" />
            <mxPoint x="320" y="705" as="targetPoint" />
          </mxGeometry>
        </mxCell>
        <mxCell id="J2MpZRXdgfdqhmIiV9mJ-95" value="Name a teacher&lt;div&gt;to reg&lt;/div&gt;" style="ellipse;whiteSpace=wrap;html=1;" vertex="1" parent="1">
          <mxGeometry x="320" y="672.5" width="110" height="47.5" as="geometry" />
        </mxCell>
        <mxCell id="J2MpZRXdgfdqhmIiV9mJ-96" value="" style="endArrow=none;dashed=1;html=1;rounded=0;exitX=1;exitY=0.5;exitDx=0;exitDy=0;" edge="1" parent="1">
          <mxGeometry width="50" height="50" relative="1" as="geometry">
            <mxPoint x="260" y="760" as="sourcePoint" />
            <mxPoint x="320" y="760" as="targetPoint" />
          </mxGeometry>
        </mxCell>
        <mxCell id="J2MpZRXdgfdqhmIiV9mJ-97" value="Name a teacher&lt;div&gt;to remove&lt;/div&gt;" style="ellipse;whiteSpace=wrap;html=1;" vertex="1" parent="1">
          <mxGeometry x="320" y="738.75" width="110" height="42.5" as="geometry" />
        </mxCell>
        <mxCell id="J2MpZRXdgfdqhmIiV9mJ-99" value="Name a teacher&lt;div&gt;to remove&lt;/div&gt;" style="ellipse;whiteSpace=wrap;html=1;" vertex="1" parent="1">
          <mxGeometry x="320" y="803.75" width="110" height="42.5" as="geometry" />
        </mxCell>
        <mxCell id="J2MpZRXdgfdqhmIiV9mJ-102" value="" style="endArrow=none;dashed=1;html=1;rounded=0;exitX=1;exitY=0.5;exitDx=0;exitDy=0;entryX=0;entryY=0.5;entryDx=0;entryDy=0;" edge="1" parent="1" source="J2MpZRXdgfdqhmIiV9mJ-87" target="J2MpZRXdgfdqhmIiV9mJ-99">
          <mxGeometry width="50" height="50" relative="1" as="geometry">
            <mxPoint x="270" y="770" as="sourcePoint" />
            <mxPoint x="330" y="770" as="targetPoint" />
          </mxGeometry>
        </mxCell>
        <mxCell id="J2MpZRXdgfdqhmIiV9mJ-103" value="removeCourse" style="ellipse;whiteSpace=wrap;html=1;" vertex="1" parent="1">
          <mxGeometry x="159" y="860" width="100" height="50" as="geometry" />
        </mxCell>
        <mxCell id="J2MpZRXdgfdqhmIiV9mJ-104" value="Name a course&lt;div&gt;to remove&lt;/div&gt;" style="ellipse;whiteSpace=wrap;html=1;" vertex="1" parent="1">
          <mxGeometry x="319" y="863.75" width="110" height="42.5" as="geometry" />
        </mxCell>
        <mxCell id="J2MpZRXdgfdqhmIiV9mJ-105" value="" style="endArrow=none;dashed=1;html=1;rounded=0;exitX=1;exitY=0.5;exitDx=0;exitDy=0;entryX=0;entryY=0.5;entryDx=0;entryDy=0;" edge="1" parent="1" source="J2MpZRXdgfdqhmIiV9mJ-103" target="J2MpZRXdgfdqhmIiV9mJ-104">
          <mxGeometry width="50" height="50" relative="1" as="geometry">
            <mxPoint x="269" y="830" as="sourcePoint" />
            <mxPoint x="329" y="830" as="targetPoint" />
          </mxGeometry>
        </mxCell>
        <mxCell id="J2MpZRXdgfdqhmIiV9mJ-106" value="" style="endArrow=none;html=1;rounded=0;exitX=1;exitY=0.3333333333333333;exitDx=0;exitDy=0;exitPerimeter=0;entryX=0;entryY=0.5;entryDx=0;entryDy=0;" edge="1" parent="1" source="J2MpZRXdgfdqhmIiV9mJ-84" target="J2MpZRXdgfdqhmIiV9mJ-103">
          <mxGeometry width="50" height="50" relative="1" as="geometry">
            <mxPoint x="350" y="760" as="sourcePoint" />
            <mxPoint x="400" y="710" as="targetPoint" />
          </mxGeometry>
        </mxCell>
      </root>
    </mxGraphModel>
  </diagram>
</mxfile>
